<svg xmlns="http://www.w3.org/2000/svg" width="40" height="40" viewBox="0 0 40 40">
  <path
    d="M22.283 19.28h-4.825l1.58-4.97a10.9 10.9 0 0 0 .273-.89c.086-.324.176-.64.272-.947.096-.345.192-.699.287-1.063h.058c.076.364.163.718.258 1.063.077.307.163.623.259.947.095.326.191.624.287.89l1.55 4.97zM20 40C8.955 40 0 31.045 0 20 0 8.954 8.955 0 20 0s20 8.954 20 20c0 11.045-8.955 20-20 20zM9.991 26.631h5.112l1.178-3.704h7.18l1.205 3.704h5.342l-7.41-20.533h-5.226L9.992 26.63zm-.245 5.023h20.508v-3.587H9.746v3.587z"
    fill="#a8a29e" />
</svg>