<svg xmlns="http://www.w3.org/2000/svg" role="img" width="24" height="24" x="0" y="0" version="1.1" viewBox="0 0 24 24"
  xml:space="preserve">
  <style type="text/css">
    .c {
      fill: #ded9c3
    }
  </style>
  <path class="c"
    d="M7.5 15a53 53 0 00-2-1.8l-.4-.2c-.4-.2-1-.2-1.3.1-.3.3-.3.7-.3.9 0 1.4 2.5 3.3 3.8 4.3 4.6 3.6 4.1 4.6 6.4 5.3a7.6 7.6 0 009-4.1c.6-1.3.6-2.4.6-3.1l-.2-2.7c-.2-2.3-.4-2.7-.3-3.7l.4-1.8c.3-.6.7-1 .7-1.8l-.1-.7c-.4-.6-1.4-.4-1.5-.4-.6.1-1 .4-1.3.6-.2.1-1 .7-1.2 1.7l-.1.9c-.1 1.1-.2 1.3-.3 1.5-.2.3-.5.4-.7.5-.1.1-.4.2-.8.1-.5-.1-.9-.5-1-.7l-2.2-2.6-1.9-2.6-1.7-2.3-.4-.4c-.2-.2-.6-.6-1.2-.6-.1 0-.7 0-1.1.5l-.1.8c0 .4.2.7.7 1.3l.8 1.1a143.9 143.9 0 013.8 5l-.2.3s-.2.1-.4 0l-.2-.2c-.3-.6-4.5-5-5.5-6.5L7 3.3l-1-.6c-.2-.1-.5-.2-.9-.1-.5.1-.8.5-.9.9v.7l.3.5c.6.5 2.6 3.3 3.2 4a269 269 0 003.7 4.4l-.1.2-.3.2-.4-.1-3.7-4c-.1-.3-.3-.6-1.4-1.7l-.7-.5c-.1-.1-.6-.3-1.2-.1-.2.1-.6.2-.8.6-.1.4 0 .8.2 1.1.2.7.7 1.1.7 1.2l4.4 4.6 1.1 1.1c.1 0 .4.3.4.5v.3c-.1.1-.2.2-.3.1" />
  <path class="c" d="M2.4 15.3c.1.9.6 1.6 1.2 2.2s1.4 1 2.2 1.4" />
  <path class="c"
    d="M.8 17.1l1 2.2a6.2 6.2 0 003.7 2.6M2.6 15.9a6 6 0 003.5 3.6M13.3 2.1A5 5 0 0116.1 6M14.9.7c1.7 1.1 2.8 3 3.1 5" />
</svg>